<?xml version="1.0" encoding="utf-8"?>
<!-- Generator: Adobe Illustrator 25.0.0, SVG Export Plug-In . SVG Version: 6.00 Build 0)  -->
<svg version="1.1" id="Layer_1" xmlns="http://www.w3.org/2000/svg" xmlns:xlink="http://www.w3.org/1999/xlink" x="0px" y="0px"
	 viewBox="0 0 250 90" style="enable-background:new 0 0 250 90;" xml:space="preserve">
<style type="text/css">
	.st0{font-family:"Poppins",-apple-system,BlinkMacSystemFont,"Segoe UI",Roboto,"Helvetica Neue",Arial,"Noto Sans",sans-serif,"Apple Color Emoji","Segoe UI Emoji","Segoe UI Symbol","Noto Color Emoji", sans-serif; font-weight: 450;}
	.st1{font-size:60.418px;}
	.st2{font-size:21.9802px;}
</style>
<text transform="matrix(1 0 0 1 93 71.0273)" class="st0 st1">RVME</text>
<text transform="matrix(1 0 0 1 196.9102 23.6831)" class="st0 st2">BETA</text>
<g>
	<path d="M67.97,87.38c-0.88,0-1.65-0.6-1.85-1.46c-1.29-5.35-1.36-9.96-0.21-13.72c1.15-3.78,3.25-7.08,5.31-10.13l2.17-3.22
		l-2.91,2.57c-5.28,4.66-12.08,7.22-19.15,7.22c-7.75,0-15.03-3.02-20.51-8.5c-4.46-4.46-6.91-10.38-6.91-16.68
		c0-6.3,2.45-12.22,6.91-16.68c3.64-3.64,8.47-5.64,13.61-5.64s9.98,2,13.61,5.64c2.98,2.98,4.62,6.94,4.62,11.16
		c0,4.22-1.64,8.18-4.62,11.16c-2.46,2.46-5.72,3.81-9.2,3.81s-6.74-1.35-9.2-3.81c-2.04-2.04-3.16-4.75-3.16-7.63
		s1.12-5.59,3.16-7.63c1.7-1.7,3.97-2.64,6.37-2.64c2.41,0,4.67,0.94,6.37,2.64c0.74,0.74,0.74,1.96,0,2.7
		c-0.36,0.36-0.84,0.56-1.35,0.56s-0.99-0.2-1.35-0.56c-0.98-0.98-2.29-1.52-3.67-1.52c-1.39,0-2.69,0.54-3.67,1.52
		c-1.32,1.32-2.04,3.07-2.04,4.93c0,1.86,0.73,3.61,2.04,4.93c1.74,1.74,4.04,2.69,6.5,2.69s4.76-0.96,6.5-2.69
		c2.26-2.26,3.5-5.27,3.5-8.46c0-3.2-1.24-6.2-3.5-8.46c-2.92-2.92-6.79-4.52-10.91-4.52c-4.12,0-8,1.61-10.91,4.52
		c-3.73,3.73-5.79,8.7-5.79,13.98s2.06,10.25,5.79,13.98c4.76,4.76,11.08,7.38,17.81,7.38c6.73,0,13.06-2.62,17.82-7.38
		c11.5-11.5,12.43-30.34,2.1-42.89c-3.1-3.06-6.72-5.37-10.49-6.74c-4.27-1.55-9.33-2.37-14.63-2.37c-4.33,0-8.62,0.53-12.75,1.57
		C25.63,8.97,19.95,13.55,16,21.03c-2.08,3.94-2.88,8.17-2.24,11.9c0.62,3.63,1.06,7.83-1.53,11.77c-0.55,0.84-1.21,1.66-1.84,2.47
		c-1.16,1.46-2.36,2.97-2.83,4.43l-0.11,0.33l0.28,0.22c0.75,0.58,2.25,1.32,2.89,1.64c0.68,0.33,1.25,0.61,1.66,0.9
		c2.14,1.46,2.48,3.24,2.39,4.47c-0.1,1.36-0.74,2.61-1.31,3.72c-0.42,0.83-0.86,1.68-0.9,2.27c-0.02,0.37,0.21,0.69,0.79,1.08
		c3.23,2.38,2.78,5.82,2.49,8.1c-0.07,0.57-0.18,1.35-0.15,1.8l0.02,0.34l0.33,0.11c0.65,0.21,1.36,0.32,2.19,0.32
		c0.94,0,1.93-0.13,2.97-0.26c1.13-0.15,2.29-0.3,3.49-0.3c0.17,0,0.34,0,0.51,0.01c1.55,0.06,3.36,0.31,5.17,1.7
		c2.31,1.75,3.6,5.73,3.94,6.91c0.14,0.49,0.08,1-0.17,1.45s-0.65,0.77-1.14,0.91c-0.17,0.05-0.35,0.07-0.53,0.07
		c-0.85,0-1.6-0.57-1.83-1.38c-0.62-2.17-1.73-4.28-2.58-4.92c-0.81-0.62-1.59-0.86-2.96-0.92c-0.15,0-0.29-0.01-0.42-0.01
		c-0.94,0-1.92,0.13-2.96,0.26c-1.14,0.15-2.29,0.3-3.5,0.3c-1.38,0-2.6-0.21-3.73-0.63c-1.39-0.52-2.29-1.62-2.54-3.1
		c-0.17-1.01-0.03-2.1,0.11-3.15c0.28-2.15,0.39-3.51-0.84-4.45c-2.18-1.47-2.54-3.25-2.46-4.48c0.09-1.37,0.74-2.64,1.31-3.76
		c0.42-0.83,0.86-1.68,0.9-2.26c0.03-0.37-0.19-0.67-0.74-1.04c-0.2-0.14-0.59-0.33-1.12-0.59c-2.2-1.08-4.88-2.39-5.4-4.58
		c-0.2-0.81-0.07-1.63,0.37-2.37c0.75-2.11,2.18-3.91,3.44-5.5c0.61-0.77,1.19-1.5,1.64-2.19c1.65-2.51,1.59-5.32,0.96-9.04
		c-0.78-4.55,0.15-9.64,2.63-14.33c4.42-8.37,11.09-13.73,19.81-15.94c4.42-1.12,9.01-1.68,13.66-1.68c5.77,0,11.29,0.9,15.95,2.59
		c8.6,3.12,15.95,10.21,19.19,18.5c1.62,4.16,2.38,9.06,2.25,14.56c-0.11,4.77-0.89,9.75-2.27,14.39
		c-1.28,4.32-3.74,7.96-6.13,11.48c-2.28,3.36-4.43,6.53-5.53,10.16c-0.95,3.09-0.85,7.03,0.27,11.71c0.25,1.02-0.39,2.06-1.41,2.3
		C68.27,87.37,68.12,87.38,67.97,87.38z"/>
	<path d="M46.1,2.13c5.71,0,11.17,0.88,15.78,2.56c8.47,3.08,15.71,10.05,18.89,18.22c1.6,4.1,2.34,8.93,2.22,14.37
		c-0.11,4.73-0.89,9.66-2.25,14.26c-1.25,4.24-3.7,7.85-6.07,11.34c-2.3,3.39-4.47,6.6-5.59,10.29c-0.97,3.18-0.88,7.21,0.26,11.97
		c0.09,0.37,0.03,0.74-0.17,1.07c-0.2,0.32-0.51,0.55-0.87,0.63c-0.11,0.03-0.22,0.04-0.33,0.04c-0.65,0-1.21-0.44-1.37-1.08
		c-1.27-5.26-1.34-9.79-0.22-13.46c1.13-3.71,3.21-6.98,5.25-10l4.33-6.44l-5.82,5.13c-5.19,4.58-11.88,7.1-18.82,7.1
		c-7.61,0-14.77-2.97-20.16-8.35c-4.36-4.36-6.76-10.16-6.76-16.33c0-6.17,2.4-11.97,6.76-16.33c3.54-3.54,8.25-5.49,13.26-5.49
		c5.01,0,9.72,1.95,13.26,5.49c2.89,2.89,4.48,6.72,4.48,10.81c0,4.08-1.59,7.92-4.48,10.81c-2.36,2.36-5.5,3.66-8.84,3.66
		c-3.34,0-6.48-1.3-8.84-3.66c-1.94-1.94-3.01-4.53-3.01-7.28c0-2.75,1.07-5.33,3.01-7.27c1.61-1.61,3.75-2.49,6.02-2.49
		c2.27,0,4.41,0.89,6.02,2.49c0.55,0.55,0.55,1.44,0,1.99c-0.27,0.27-0.62,0.41-1,0.41c-0.38,0-0.73-0.15-1-0.41
		c-1.08-1.08-2.51-1.67-4.03-1.67c-1.52,0-2.95,0.59-4.03,1.67c-1.41,1.41-2.19,3.29-2.19,5.28c0,2,0.78,3.87,2.19,5.28
		c1.83,1.83,4.26,2.84,6.85,2.84c2.59,0,5.02-1.01,6.85-2.84c2.35-2.35,3.65-5.49,3.65-8.82c0-3.33-1.3-6.46-3.65-8.82
		c-3.01-3.01-7.01-4.67-11.27-4.67c-4.26,0-8.26,1.66-11.27,4.67c-3.83,3.83-5.94,8.92-5.94,14.33c0,5.41,2.11,10.51,5.94,14.33
		c4.85,4.85,11.3,7.52,18.17,7.52c6.86,0,13.31-2.67,18.17-7.52c11.68-11.68,12.62-30.82,2.14-43.56l-0.03-0.04l-0.04-0.04
		c-3.12-3.07-6.8-5.42-10.64-6.82c-4.32-1.57-9.44-2.4-14.8-2.4c-4.37,0-8.7,0.53-12.87,1.59c-7.88,1.99-13.67,6.66-17.69,14.27
		c-2.14,4.04-2.95,8.38-2.29,12.22c0.6,3.54,1.04,7.62-1.45,11.42c-0.53,0.81-1.18,1.63-1.82,2.43c-1.19,1.5-2.41,3.04-2.92,4.59
		l-0.22,0.66l0.55,0.43c0.79,0.62,2.33,1.38,3,1.7c0.67,0.33,1.21,0.59,1.58,0.85c1.56,1.06,2.29,2.41,2.17,4.02
		c-0.09,1.26-0.68,2.41-1.26,3.53c-0.55,1.07-0.91,1.82-0.96,2.47c-0.05,0.73,0.52,1.2,1.01,1.52l0.06,0.05
		c2.92,2.15,2.49,5.42,2.21,7.58c-0.1,0.76-0.18,1.42-0.16,1.89l0.03,0.69l0.66,0.22c0.7,0.23,1.46,0.34,2.35,0.34
		c0.97,0,1.97-0.13,3.04-0.27c1.11-0.14,2.25-0.29,3.42-0.29c0.16,0,0.33,0,0.52,0.01c1.52,0.06,3.16,0.3,4.86,1.6
		c1.74,1.31,3.08,4.29,3.76,6.65c0.1,0.36,0.06,0.74-0.12,1.07c-0.18,0.33-0.48,0.57-0.84,0.67c-0.13,0.04-0.26,0.06-0.39,0.06
		c-0.62,0-1.18-0.42-1.35-1.02c-0.66-2.29-1.82-4.47-2.75-5.18c-0.9-0.69-1.78-0.96-3.27-1.03c-0.14-0.01-0.27-0.01-0.41-0.01
		c-0.98,0-1.98,0.13-3.05,0.27c-1.1,0.14-2.24,0.29-3.4,0.29c-1.32,0-2.48-0.2-3.56-0.6c-1.23-0.46-2-1.4-2.22-2.71
		c-0.16-0.94-0.02-1.99,0.11-3.01c0.25-1.93,0.49-3.75-1.03-4.91l-0.02-0.02l-0.02-0.02c-1.57-1.06-2.32-2.41-2.21-4.02
		c0.08-1.27,0.68-2.44,1.26-3.57c0.53-1.03,0.91-1.81,0.95-2.45c0.05-0.72-0.48-1.17-0.96-1.5l-0.56,0.83l0.5-0.87
		c-0.17-0.11-0.49-0.28-1.18-0.61c-2.06-1.01-4.61-2.26-5.09-4.22c-0.16-0.68-0.06-1.37,0.31-2l0.05-0.08l0.03-0.09
		c0.69-1.95,2.09-3.71,3.32-5.27c0.62-0.78,1.2-1.51,1.67-2.22c1.74-2.65,1.68-5.56,1.03-9.4c-0.76-4.45,0.15-9.42,2.58-14.01
		C17.42,11.24,23.97,5.96,32.55,3.8C36.93,2.69,41.49,2.13,46.1,2.13 M46.1,1.13c-4.6,0-9.3,0.56-13.79,1.7
		c-8.87,2.24-15.64,7.68-20.13,16.19C9.65,23.8,8.7,29,9.5,33.66c0.61,3.6,0.68,6.3-0.88,8.68C8.18,43.01,7.61,43.72,7,44.49
		c-1.29,1.62-2.74,3.45-3.48,5.56c-0.5,0.85-0.65,1.81-0.42,2.74c0.58,2.41,3.38,3.78,5.62,4.88c0.39,0.19,0.92,0.45,1.06,0.55
		c0.02,0.01,0.03,0.02,0.05,0.03c0.54,0.36,0.53,0.52,0.52,0.59c-0.03,0.48-0.47,1.32-0.85,2.06c-0.6,1.16-1.27,2.48-1.37,3.96
		c-0.09,1.37,0.3,3.33,2.65,4.91c0.96,0.73,0.94,1.79,0.65,3.99c-0.14,1.09-0.29,2.21-0.11,3.3c0.28,1.66,1.29,2.9,2.85,3.48
		c1.33,0.5,2.64,0.66,3.91,0.66c1.23,0,2.42-0.15,3.53-0.3c1.03-0.13,2-0.26,2.93-0.26c0.12,0,0.25,0,0.37,0.01
		c0.01,0,0.02,0,0.02,0c1.27,0.05,1.95,0.26,2.68,0.82c0.67,0.5,1.74,2.38,2.4,4.66c0.3,1.06,1.27,1.75,2.31,1.75
		c0.22,0,0.44-0.03,0.66-0.09c1.28-0.37,2.02-1.7,1.65-2.98c-0.35-1.22-1.68-5.33-4.11-7.17c-1.92-1.47-3.82-1.74-5.43-1.8
		c-0.01,0-0.02,0-0.03,0c-0.18-0.01-0.35-0.01-0.53-0.01c-1.23,0-2.41,0.15-3.55,0.3c-1.04,0.14-2,0.26-2.91,0.26
		c-0.71,0-1.39-0.08-2.03-0.29c-0.02-0.42,0.08-1.18,0.15-1.72c0.29-2.25,0.78-6.02-2.61-8.51c-0.03-0.02-0.07-0.05-0.1-0.07
		c-0.58-0.38-0.57-0.56-0.57-0.62c0.03-0.48,0.47-1.33,0.85-2.08c0.59-1.15,1.26-2.45,1.36-3.91c0.1-1.37-0.27-3.33-2.6-4.92
		c-0.43-0.3-1-0.58-1.71-0.93c-0.63-0.31-2.11-1.03-2.81-1.59c0.45-1.37,1.62-2.85,2.75-4.28c0.64-0.81,1.31-1.65,1.87-2.5
		c2.69-4.09,2.24-8.41,1.6-12.13c-0.62-3.62,0.16-7.73,2.19-11.58C20.32,13.92,25.9,9.42,33.49,7.5c4.12-1.04,8.43-1.56,12.63-1.56
		c5.17,0,10.18,0.78,14.46,2.34c3.78,1.37,7.33,3.7,10.28,6.59c10.18,12.37,9.29,30.86-2.07,42.22c-4.66,4.66-10.86,7.23-17.46,7.23
		c0,0,0,0,0,0c-6.59,0-12.79-2.57-17.46-7.23c-3.64-3.64-5.64-8.48-5.64-13.63c0-5.15,2-9.99,5.64-13.63
		c2.82-2.82,6.57-4.37,10.56-4.37c3.99,0,7.74,1.55,10.56,4.37c2.17,2.17,3.36,5.05,3.36,8.11c0,3.06-1.19,5.94-3.36,8.11
		c-1.64,1.64-3.82,2.55-6.15,2.55s-4.5-0.9-6.15-2.55c-1.22-1.22-1.9-2.85-1.9-4.58c0-1.73,0.67-3.35,1.9-4.58
		c0.89-0.89,2.07-1.38,3.32-1.38c1.25,0,2.43,0.49,3.32,1.38c0.47,0.47,1.09,0.71,1.7,0.71c0.62,0,1.23-0.24,1.7-0.71
		c0.94-0.94,0.94-2.47,0-3.41c-1.8-1.8-4.19-2.79-6.73-2.79c-2.54,0-4.93,0.99-6.73,2.79c-2.13,2.13-3.31,4.97-3.31,7.98
		c0,3.02,1.17,5.85,3.31,7.98c2.55,2.55,5.94,3.96,9.55,3.96c3.61,0,7-1.41,9.55-3.96c3.08-3.08,4.77-7.16,4.77-11.51
		c0-4.35-1.69-8.44-4.77-11.51c-3.73-3.73-8.69-5.79-13.97-5.79c-5.28,0-10.24,2.05-13.97,5.79c-4.55,4.55-7.06,10.6-7.06,17.03
		c0,6.43,2.51,12.48,7.06,17.03c5.57,5.57,12.98,8.64,20.86,8.64c0,0,0,0,0,0c7.25,0,14.09-2.6,19.48-7.35
		c-2.12,3.15-4.21,6.45-5.37,10.27c-1.17,3.84-1.1,8.55,0.2,13.98c0.27,1.1,1.25,1.85,2.34,1.85c0.19,0,0.38-0.02,0.57-0.07
		c1.29-0.31,2.09-1.61,1.78-2.91c-1.1-4.59-1.2-8.44-0.28-11.45c1.08-3.55,3.21-6.7,5.47-10.03c2.41-3.55,4.9-7.23,6.19-11.62
		c1.38-4.68,2.18-9.7,2.29-14.52c0.13-5.57-0.64-10.54-2.29-14.76C78.41,14.12,70.95,6.92,62.22,3.75
		C57.43,2.01,51.84,1.13,46.1,1.13L46.1,1.13z"/>
</g>
</svg>
